<svg id="logo" viewBox="-5 -5 290 50" width="726" height="157" xmlns="http://www.w3.org/2000/svg"><path d="m277 28.25h-14.84c.67 2.42 2.51 3.61 5.54 3.61a5.28 5.28 0 0 0 4.4-1.92l4.08 2.3c-1.92 2.73-4.79 4.11-8.56 4.11a10.68 10.68 0 0 1 -7.82-2.88 9.78 9.78 0 0 1 -2.95-7.25 9.84 9.84 0 0 1 2.91-7.22 10 10 0 0 1 7.47-2.92 9.34 9.34 0 0 1 7.1 2.92 9.93 9.93 0 0 1 2.83 7.21 12.57 12.57 0 0 1 -.16 2.04zm-9.74-7.71a4.88 4.88 0 0 0 -5.15 3.88h10a4.73 4.73 0 0 0 -4.88-3.88zm-17.88 3.8c0-2.3-1.22-3.65-3.3-3.65-2.32 0-3.66 1.54-3.66 4.34v10.78h-5.07v-11.47c0-2.3-1.21-3.65-3.29-3.65-2.24 0-3.7 1.54-3.7 4.34v10.78h-5.07v-19.18h5.07v2a6.12 6.12 0 0 1 5.46-2.57 5.85 5.85 0 0 1 5.34 2.76 6.71 6.71 0 0 1 5.84-2.73c4.51 0 7.42 3.11 7.42 7.9v11.82h-5.06zm-32.95 11a3.21 3.21 0 0 1 -.06-4.54l.06-.06a3.39 3.39 0 0 1 4.71 0 3.19 3.19 0 0 1 .07 4.53l-.07.07a3.4 3.4 0 0 1 -4.71 0z" fill="#253246"/><g fill="#06adef"><path d="m36.9 8.22a3.13 3.13 0 0 0 -3.07 3.08 3.13 3.13 0 0 0 6.25 0 3.14 3.14 0 0 0 -3.18-3.08z"/><path d="m16.61 40.3a15.29 15.29 0 0 0 9.58-3.14 10.43 10.43 0 0 0 3.92-8.53 10.61 10.61 0 0 0 -1.35-5.34z"/><path d="m87.31 16.09a7.64 7.64 0 0 0 -6.31 2.8v-2.26h-5.12v26.85h5.12v-9.93a7.64 7.64 0 0 0 6.36 2.8 9 9 0 0 0 6.76-2.92 10 10 0 0 0 2.83-7.21 9.94 9.94 0 0 0 -2.83-7.17 9 9 0 0 0 -6.81-2.96zm3 14a5.79 5.79 0 0 1 -7.78 0 5.37 5.37 0 0 1 -1.53-3.87 5.49 5.49 0 0 1 9.31-3.87 5 5 0 0 1 1.57 3.87 5.2 5.2 0 0 1 -1.62 3.91z"/><path d="m64.89 16.09a6.7 6.7 0 0 0 -5.89 2.76 5.86 5.86 0 0 0 -5.34-2.76 6.13 6.13 0 0 0 -5.46 2.57v-2h-5.03v19.15h5.07v-10.81c0-2.8 1.45-4.34 3.69-4.34 2.08 0 3.3 1.35 3.3 3.65v11.5h5.07v-10.81c0-2.8 1.33-4.34 3.65-4.34 2.08 0 3.3 1.35 3.3 3.65v11.5h5.07v-11.81c0-4.8-2.91-7.91-7.43-7.91z"/><path d="m34.42 35.81h5.07v-19.18h-5.07z"/><path d="m99.57 7.8h5.07v28.01h-5.07z"/><path d="m190.13 19.2-.16-.15a10.71 10.71 0 0 0 -14.77 0 9.6 9.6 0 0 0 -3 7.17 9.68 9.68 0 0 0 3 7.21 10.81 10.81 0 0 0 14.77 0 10.06 10.06 0 0 0 .16-14.23zm-3.73 10.8a5.61 5.61 0 0 1 -7.62 0 5.38 5.38 0 0 1 7.62-7.6 5.48 5.48 0 0 1 0 7.6z"/><path d="m205.54 26.11 7.9-9.48h-6.05l-6.76 8.44v-16.11h-5.06v26.85h5.06v-8.71l7.15 8.71h5.9z"/><path d="m167.71 19.05a10.71 10.71 0 0 0 -14.77 0 9.61 9.61 0 0 0 -3 7.17 9.69 9.69 0 0 0 3 7.21 10.81 10.81 0 0 0 14.77 0 10.06 10.06 0 0 0 .15-14.23zm-3.58 11a5.61 5.61 0 0 1 -7.62 0 5.38 5.38 0 0 1 7.62-7.6 5.46 5.46 0 0 1 0 7.55z"/><path d="m144.65 21.89a6.5 6.5 0 0 0 2.6-5.38 6.92 6.92 0 0 0 -2.44-5.4 8.62 8.62 0 0 0 -5.93-2.11h-10.88v26.81h11.7a8.87 8.87 0 0 0 6.09-2.19 7.17 7.17 0 0 0 2.48-5.6 6.62 6.62 0 0 0 -3.62-6.13zm-11.19-8h5.42a2.95 2.95 0 1 1 0 5.9h-5.42zm6.32 17h-6.32v-6.36h6.24a3.17 3.17 0 0 1 .08 6.33z"/><path d="m116.72 29.52-5.11-12.89h-5.54l8.06 18.57c-.94 2.61-2.44 3.72-5.15 3.68v4.6c5 .27 8.33-2.15 10.37-7.67l7.15-19.18h-5.42z"/><path d="m23.51 18.91c-.3-.13-.6-.25-.92-.36a22.53 22.53 0 0 0 -2.48-.94l-2.65-.88a23.63 23.63 0 0 1 -5.86-2.44 3.61 3.61 0 0 1 -1.49-3c0-2.29 1.89-3.87 5.08-3.87 3.36 0 5.83 1.65 7.38 4.94l5.43-5.5a14.68 14.68 0 0 0 -12.81-6.86 13.6 13.6 0 0 0 -9 3.16 10.3 10.3 0 0 0 -3.7 8.36 9.35 9.35 0 0 0 3.65 8 24.79 24.79 0 0 0 8 3.6c1.47.41 2.73.82 3.77 1.21l-7.78 7.47-4.92-4.46-5.21 5.28 10.13 9.14 21-29.67h-.54z"/></g></svg>