<?xml version="1.0" encoding="utf-8"?>
<!-- Generator: Adobe Illustrator 23.0.3, SVG Export Plug-In . SVG Version: 6.00 Build 0)  -->
<svg version="1.1" id="Слой_1" xmlns="http://www.w3.org/2000/svg" xmlns:xlink="http://www.w3.org/1999/xlink" x="0px" y="0px"
	 viewBox="0 0 100 100" style="enable-background:new 0 0 100 100;" xml:space="preserve">
<style type="text/css">
	.st0{fill:none;stroke:#06ADEF;stroke-width:4;stroke-linecap:round;stroke-linejoin:round;stroke-miterlimit:10;}
	.st1{fill:none;stroke:#2D3547;stroke-width:2;stroke-miterlimit:10;}
	.st2{fill:none;stroke:#2D3547;stroke-width:4;stroke-linecap:round;stroke-linejoin:round;stroke-miterlimit:10;}
	.st3{fill:none;stroke:#2D3547;stroke-width:4;stroke-linejoin:round;stroke-miterlimit:10;}
	.st4{fill:none;stroke:#2D3547;stroke-width:4;stroke-miterlimit:10;}
</style>
<path class="st0" d="M30.4,49.8h-6.3c-1.1,0-2-0.9-2-2v-6.3c0-1.1,0.9-2,2-2h6.3c1.1,0,2,0.9,2,2v6.3C32.4,48.9,31.5,49.8,30.4,49.8
	z"/>
<path class="st1" d="M45.7,49.8h-6.3c-1.1,0-2-0.9-2-2v-6.3c0-1.1,0.9-2,2-2h6.3c1.1,0,2,0.9,2,2v6.3C47.7,48.9,46.8,49.8,45.7,49.8
	z"/>
<path class="st1" d="M31.2,21.9H25c-1.1,0-2-0.9-2-2v-8.2c0-1.1,0.9-2,2-2h6.2c1.1,0,2,0.9,2,2v8.2C33.2,21,32.3,21.9,31.2,21.9z"/>
<path class="st1" d="M73.4,21.9h-6.2c-1.1,0-2-0.9-2-2v-8.2c0-1.1,0.9-2,2-2h6.2c1.1,0,2,0.9,2,2v8.2C75.4,21,74.5,21.9,73.4,21.9z"
	/>
<path class="st1" d="M30.4,65.6h-6.3c-1.1,0-2-0.9-2-2v-6.3c0-1.1,0.9-2,2-2h6.3c1.1,0,2,0.9,2,2v6.3C32.4,64.7,31.5,65.6,30.4,65.6
	z"/>
<path class="st1" d="M30.4,80.5h-6.3c-1.1,0-2-0.9-2-2v-6.3c0-1.1,0.9-2,2-2h6.3c1.1,0,2,0.9,2,2v6.3C32.4,79.6,31.5,80.5,30.4,80.5
	z"/>
<path class="st1" d="M60.9,49.8h-6.3c-1.1,0-2-0.9-2-2v-6.3c0-1.1,0.9-2,2-2h6.3c1.1,0,2,0.9,2,2v6.3C62.9,48.9,62,49.8,60.9,49.8z"
	/>
<path class="st1" d="M76.1,49.8h-6.3c-1.1,0-2-0.9-2-2v-6.3c0-1.1,0.9-2,2-2h6.3c1.1,0,2,0.9,2,2v6.3C78.1,48.9,77.2,49.8,76.1,49.8
	z"/>
<path class="st2" d="M58.7,90.2H18.1c-2.2,0-4.1-1.8-4.1-4.1V29.9h69.8v19.5"/>
<path class="st3" d="M14.1,29.9v-10c0-2.2,1.8-4.1,4.1-4.1H22"/>
<path class="st2" d="M83.9,29.9v-10c0-2.2-1.8-4.1-4.1-4.1H77"/>
<line class="st4" x1="32.2" y1="15.8" x2="65.6" y2="15.8"/>
<path class="st0" d="M44,61.3l10.5-5.5c0.6-0.3,1.3,0.1,1.3,0.7L54,62l27.2,0c1.7,0,3,1.2,3,2.7l0,5.3l0-5.3c0-1.5-1.3-2.7-3-2.7
	L54,62l1.8,5.2c0.1,0.6-0.7,1.1-1.3,0.8L44,62.6C43.4,62.3,43.4,61.6,44,61.3z"/>
<path class="st0" d="M87.4,83.8l-10.5,5.5c-0.6,0.3-1.3-0.1-1.3-0.7l1.7-5.5l-26.4,0c-1.7,0-3-1.2-3-2.7l0-5.4l0,5.4
	c0,1.5,1.3,2.7,3,2.7l26.4,0l-1.8-5.2c-0.1-0.6,0.7-1.1,1.3-0.8l10.6,5.3C88,82.7,88,83.5,87.4,83.8z"/>
</svg>
