<?xml version="1.0" encoding="utf-8"?>
<!-- Generator: Adobe Illustrator 23.0.3, SVG Export Plug-In . SVG Version: 6.00 Build 0)  -->
<svg version="1.1" id="Слой_1" xmlns="http://www.w3.org/2000/svg" xmlns:xlink="http://www.w3.org/1999/xlink" x="0px" y="0px"
	 viewBox="0 0 100 100" style="enable-background:new 0 0 100 100;" xml:space="preserve">
<style type="text/css">
	.st0{fill:none;stroke:#2D3547;stroke-width:2;stroke-linecap:round;stroke-linejoin:round;stroke-miterlimit:10;}
	.st1{fill:none;stroke:#2D3547;stroke-linecap:round;stroke-linejoin:round;stroke-miterlimit:10;}
	.st2{fill:none;stroke:#2D3547;stroke-width:3;stroke-linecap:round;stroke-linejoin:round;stroke-miterlimit:10;}
	.st3{fill:none;stroke:#06ADEF;stroke-width:4;stroke-linecap:round;stroke-linejoin:round;stroke-miterlimit:10;}
</style>
<g>
	<path class="st0" d="M26.5,45.6h-2.6c-1.1,0-2-0.9-2-2V14.7c0-1.1,0.9-2,2-2h15.4c1.1,0,2,0.9,2,2v15.5"/>
	<line class="st1" x1="22" y1="17.1" x2="40.9" y2="17.1"/>
	<line class="st1" x1="22" y1="41.4" x2="29.3" y2="41.4"/>
	<line class="st1" x1="29.5" y1="15.3" x2="33.4" y2="15.3"/>
</g>
<polyline class="st0" points="46.7,31.3 83.9,31.3 83.9,35.2 "/>
<path class="st2" d="M59.2,77.1H16.9c-2.2,0-4-1.8-4-4V31.3"/>
<path class="st2" d="M17.8,24.4c0,0-1.1,0-1.1,0c-2.1,0.1-3.8,1.8-3.8,3.9V32"/>
<path class="st2" d="M16.8,24.4"/>
<path class="st2" d="M83.9,38.9V28.3c0-2.1-1.7-3.9-3.9-3.9H46.6"/>
<path class="st0" d="M63.8,87.8H33.1c-1.1,0-1.1,0,0,0H63.8C64.9,87.8,64.9,87.8,63.8,87.8z"/>
<polygon class="st0" points="57.7,87.8 44.1,87.8 45.5,77.1 56.3,77.1 "/>
<polyline class="st3" points="39.9,52.4 46.3,58.8 56.9,48.2 "/>
<circle class="st3" cx="47.8" cy="53.3" r="16.6"/>
<g>
	<g>
		<line class="st0" x1="68.1" y1="44" x2="88.6" y2="44"/>
		<path class="st0" d="M88.6,44c1.3,0,2.4,0.9,2.4,2.1v33.8c0,0.8-0.8,1.5-1.7,1.5H65c-0.9,0-1.7-0.7-1.7-1.5V69.4"/>
		<line class="st1" x1="70.6" y1="50.3" x2="91" y2="50.3"/>
	</g>
	<line class="st1" x1="75.2" y1="78" x2="79.1" y2="78"/>
</g>
</svg>
