<?xml version="1.0" encoding="utf-8"?>
<!-- Generator: Adobe Illustrator 23.0.3, SVG Export Plug-In . SVG Version: 6.00 Build 0)  -->
<svg version="1.1" id="Слой_1" xmlns="http://www.w3.org/2000/svg" xmlns:xlink="http://www.w3.org/1999/xlink" x="0px" y="0px"
	 viewBox="0 0 100 100" style="enable-background:new 0 0 100 100;" xml:space="preserve">
<style type="text/css">
	.st0{fill:none;stroke:#06ADEF;stroke-width:4;stroke-linecap:round;stroke-linejoin:round;stroke-miterlimit:10;}
	.st1{fill:none;stroke:#2D3547;stroke-width:2;stroke-linecap:round;stroke-linejoin:round;stroke-miterlimit:10;}
	.st2{fill:none;stroke:#2D3547;stroke-width:3;stroke-miterlimit:10;}
</style>
<polyline class="st0" points="43.9,27.4 50.3,33.8 60.8,23.2 "/>
<path class="st1" d="M35.4,89.4c0-4.8,0-8.1,0-10.2c0-4.4,12.5-7.5,12.5-7.5v-3.7c0,0-2.5-2.1-3.2-3.8c-0.7-1.7-2.2-14.2,7.4-14.2
	s8.4,13.6,6.4,15.8c-1.4,1.5-2.4,2.1-2.4,2.1v3.8c0,0,12.5,2.7,12.7,6.5s0,11.1,0,11.1H35.4z"/>
<path class="st1" d="M67.8,73.3c1.5-0.5,0.7-0.8,0.7-0.8V69c0,0-2.4-2-3.1-3.6c-0.7-1.6-2.1-13.6,7.1-13.6s8,13,6.1,15.1
	c-1.3,1.5-2.3,2-2.3,2v3.6c0,0,12,2.6,12.1,6.2c0.1,3.6,0,10.7,0,10.7H74.2"/>
<path class="st1" d="M65,59c2.4,1.3,4.9-1.4,4.9-1.4c1.8,2.3,9.2,1.7,9.2,1.7"/>
<path class="st1" d="M44.7,57.6c2.5,1.4,5.1-1.5,5.1-1.5c1.8,2.4,9.6,1.7,9.6,1.7"/>
<path class="st1" d="M36,73.6c-1.9-0.7-0.6-1-0.6-1V69c0,0,2.4-2,3.1-3.6c0.7-1.6,2.1-13.6-7.1-13.6s-8,13-6.1,15.1
	c1.3,1.5,2.3,2,2.3,2v3.6c0,0-12,2.6-12.1,6.2s0,10.7,0,10.7h14.3"/>
<path class="st1" d="M38.9,59c-2.4,1.3-4.9-1.4-4.9-1.4c-1.8,2.3-9.2,1.7-9.2,1.7"/>
<polyline class="st1" points="68.6,72.5 72.4,74.8 76.4,72.5 "/>
<polyline class="st1" points="27.5,72.5 31.3,74.8 35.3,72.5 "/>
<path class="st0" d="M73.1,29.1h12.4c2.2,0,4,1.8,4,4V67h-4.6"/>
<path class="st0" d="M19.2,67h-5.3V33.1c0-2.2,1.8-4,4-4h12.2"/>
<circle class="st2" cx="51.4" cy="28.1" r="15.7"/>
</svg>
