<?xml version="1.0" encoding="utf-8"?>
<!-- Generator: Adobe Illustrator 23.0.3, SVG Export Plug-In . SVG Version: 6.00 Build 0)  -->
<svg version="1.1" id="Слой_1" xmlns="http://www.w3.org/2000/svg" xmlns:xlink="http://www.w3.org/1999/xlink" x="0px" y="0px"
	 viewBox="0 0 100 100" style="enable-background:new 0 0 100 100;" xml:space="preserve">
<style type="text/css">
	.st0{fill:none;stroke:#06ADEF;stroke-width:4;stroke-linecap:round;stroke-linejoin:round;stroke-miterlimit:10;}
	.st1{fill:#2D3547;}
	.st2{fill:none;stroke:#2D3547;stroke-width:3;stroke-linecap:round;stroke-linejoin:round;stroke-miterlimit:10;}
	.st3{fill:none;stroke:#2D3547;stroke-width:2;stroke-linecap:round;stroke-linejoin:round;stroke-miterlimit:10;}
	.st4{fill:none;stroke:#2D3547;stroke-miterlimit:10;}
</style>
<path class="st0" d="M23.5,36.4l13.1-8.2c0.8-0.5,1.7,0.2,1.6,1.1l-2.1,8.1l35.2,0c2.1,0,3.7,1.8,3.8,4l0,7.9l0-7.9
	c0-2.2-1.7-4-3.8-4l-35.2,0l2.3,7.7c0.1,0.9-0.8,1.6-1.6,1.1l-13.3-7.9C22.8,37.9,22.8,36.8,23.5,36.4z"/>
<path class="st0" d="M79.2,62.6L66,70.8c-0.8,0.5-1.7-0.2-1.6-1.1l2.1-8.1l-36.3,0c-2.1,0-3.7-1.8-3.8-4l0-8l0,8c0,2.2,1.7,4,3.8,4
	l36.3,0l-2.3-7.7c-0.1-0.9,0.8-1.6,1.6-1.1l13.3,7.9C79.9,61.1,79.9,62.2,79.2,62.6z"/>
<path class="st1" d="M54.1,13.4h-7.9c-0.7,0-1.2,0.5-1.2,1.2s0.5,1.2,1.2,1.2h7.9c0.7,0,1.2-0.5,1.2-1.2S54.8,13.4,54.1,13.4z"/>
<path class="st1" d="M54.1,83.2h-7.9c-0.7,0-1.2,0.5-1.2,1.2c0,0.7,0.5,1.2,1.2,1.2h7.9c0.7,0,1.2-0.5,1.2-1.2
	C55.3,83.7,54.8,83.2,54.1,83.2z"/>
<path class="st2" d="M76.1,74v11.8c0,2.3-1.9,4.2-4.2,4.2H29.1c-2.3,0-4.2-1.9-4.2-4.2V70"/>
<path class="st2" d="M24.9,22.7v-8.1c0-2.3,1.9-4.2,4.2-4.2h42.9c2.3,0,4.2,1.9,4.2,4.2v13.1"/>
<line class="st3" x1="25.2" y1="18.9" x2="75.1" y2="18.9"/>
<line class="st3" x1="25.2" y1="79.9" x2="75.1" y2="79.9"/>
<line class="st4" x1="45" y1="14.6" x2="55.3" y2="14.6"/>
</svg>
