<?xml version="1.0" encoding="utf-8"?>
<!-- Generator: Adobe Illustrator 23.0.3, SVG Export Plug-In . SVG Version: 6.00 Build 0)  -->
<svg version="1.1" id="Слой_1" xmlns="http://www.w3.org/2000/svg" xmlns:xlink="http://www.w3.org/1999/xlink" x="0px" y="0px"
	 viewBox="0 0 100 100" style="enable-background:new 0 0 100 100;" xml:space="preserve">
<style type="text/css">
	.st0{fill:none;stroke:#2D3547;stroke-width:3;stroke-linecap:round;stroke-linejoin:round;stroke-miterlimit:10;}
	.st1{fill:none;stroke:#2D3547;stroke-linecap:round;stroke-linejoin:round;stroke-miterlimit:10;}
	.st2{fill:none;stroke:#06ADEF;stroke-width:4;stroke-linecap:round;stroke-linejoin:round;stroke-miterlimit:10;}
</style>
<path class="st0" d="M41.1,68.2H16.4c-2.1,0-3.8-1.7-3.8-3.8V28.9h67.7"/>
<path class="st0" d="M81.6,17h-65c-2.2,0-4,1.8-4,4v7.9"/>
<polyline class="st0" points="86.8,40.8 86.8,28.9 23.1,28.9 "/>
<path class="st0" d="M21.8,17H83c2.1,0,3.8,1.8,3.8,4v7.9"/>
<circle class="st1" cx="19.1" cy="23.3" r="1.7"/>
<circle class="st1" cx="24.6" cy="23.3" r="1.7"/>
<circle class="st1" cx="30.6" cy="23.3" r="1.7"/>
<g>
	<path class="st2" d="M65,45.1c2-0.5,4.1-0.6,6.1-0.4"/>
	<path class="st2" d="M52.1,66.1c-0.5-2-0.6-4.1-0.4-6.1"/>
	<path class="st2" d="M60,76.9c-1.8-1.1-3.3-2.5-4.6-4.1"/>
	<path class="st2" d="M73.1,78.9c-2,0.5-4.1,0.6-6.1,0.4"/>
	<path class="st2" d="M84,70.9c-1.1,1.9-2.5,3.5-4.2,4.8"/>
	<path class="st2" d="M86,57.9c0.5,2,0.6,4.1,0.4,6.1"/>
	<path class="st2" d="M78,47c1.9,1.1,3.5,2.5,4.8,4.2"/>
	<polyline class="st2" points="71.1,44.7 73.7,40.8 79,42.7 78.2,47.2 	"/>
	<polyline class="st2" points="55.4,72.8 50.8,73.7 48.3,68.6 52.1,66.1 	"/>
	<polyline class="st2" points="67,79.3 64.4,83.2 59.1,81.3 60,76.9 	"/>
	<polyline class="st2" points="79.8,75.7 80.7,80.3 75.7,82.7 73.1,78.9 	"/>
	<polyline class="st2" points="86.4,64.1 90.2,66.7 88.4,72 83.9,71.1 	"/>
	<polyline class="st2" points="82.8,51.3 87.3,50.3 89.8,55.4 86,57.9 	"/>
</g>
<circle class="st2" cx="68.9" cy="62.3" r="8.1"/>
<g>
	<polyline class="st0" points="28.7,38.8 19.9,46 28.7,52.6 	"/>
	<polyline class="st0" points="47.6,52.6 56.4,45.4 47.6,38.8 	"/>
	<path class="st0" d="M42.1,37.3c-0.9,1.1-8.3,16.8-8.3,16.8"/>
</g>
</svg>
