<?xml version="1.0" encoding="utf-8"?>
<!-- Generator: Adobe Illustrator 23.0.3, SVG Export Plug-In . SVG Version: 6.00 Build 0)  -->
<svg version="1.1" id="Слой_1" xmlns="http://www.w3.org/2000/svg" xmlns:xlink="http://www.w3.org/1999/xlink" x="0px" y="0px"
	 viewBox="0 0 100 100" style="enable-background:new 0 0 100 100;" xml:space="preserve">
<style type="text/css">
	.st0{fill:none;stroke:#000000;stroke-width:3;stroke-miterlimit:10;}
	.st1{fill:none;stroke:#2D3547;stroke-width:4;stroke-linecap:round;stroke-miterlimit:10;}
	.st2{fill:none;stroke:#2D3547;stroke-width:2;stroke-miterlimit:10;}
	.st3{fill:none;stroke:#06ADEF;stroke-width:4;stroke-linecap:round;stroke-linejoin:round;stroke-miterlimit:10;}
</style>
<path class="st0" d="M28,44.8"/>
<path class="st1" d="M28,51.4h-5.2c-1.4,0-2.6,0.9-2.9,2.3l-7,28.1c-0.5,1.9,1,3.7,2.9,3.7h70.3c1.9,0,3.4-1.8,2.9-3.7l-6.8-28.1
	c-0.3-1.3-1.5-2.3-2.9-2.3H71"/>
<path class="st2" d="M74.5,51.4c4.9,10.1-4.6,15-24.2,18.7c-19.7,3.7-37.5,5.1-34.5,15.4"/>
<circle class="st3" cx="50.1" cy="34.8" r="9"/>
<path class="st3" d="M70.5,36c0,11.3-20.4,31.5-20.4,31.5S29.7,47.3,29.7,36s9.1-20.4,20.4-20.4S70.5,24.8,70.5,36z"/>
</svg>
