<?xml version="1.0" encoding="utf-8"?>
<!-- Generator: Adobe Illustrator 23.0.3, SVG Export Plug-In . SVG Version: 6.00 Build 0)  -->
<svg version="1.1" id="Слой_1" xmlns="http://www.w3.org/2000/svg" xmlns:xlink="http://www.w3.org/1999/xlink" x="0px" y="0px"
	 viewBox="0 0 100 100" style="enable-background:new 0 0 100 100;" xml:space="preserve">
<style type="text/css">
	.st0{fill:#2D3547;stroke:#253246;stroke-miterlimit:10;}
	.st1{fill:none;stroke:#253246;stroke-width:2;stroke-linecap:round;stroke-linejoin:round;stroke-miterlimit:10;}
	.st2{fill:none;stroke:#253246;stroke-miterlimit:10;}
	.st3{fill:none;stroke:#06ADEF;stroke-width:4;stroke-linecap:round;stroke-linejoin:round;stroke-miterlimit:10;}
</style>
<g>
	<path class="st0" d="M53.6,11h-7.9c-0.7,0-1.2,0.5-1.2,1.2s0.5,1.2,1.2,1.2h7.9c0.7,0,1.2-0.5,1.2-1.2S54.3,11,53.6,11z"/>
	<path class="st0" d="M53.6,79.8h-7.9c-0.7,0-1.2,0.5-1.2,1.2s0.5,1.2,1.2,1.2h7.9c0.7,0,1.2-0.5,1.2-1.2S54.3,79.8,53.6,79.8z"/>
	<path class="st1" d="M71.4,86.5H28.6c-2.3,0-4.2-1.9-4.2-4.2V12.2c0-2.3,1.9-4.2,4.2-4.2h42.8c2.3,0,4.2,1.9,4.2,4.2v70.2
		C75.6,84.7,73.7,86.5,71.4,86.5z"/>
	<line class="st1" x1="24.7" y1="16.5" x2="74.6" y2="16.5"/>
	<line class="st1" x1="24.7" y1="76.4" x2="74.6" y2="76.4"/>
	<line class="st2" x1="44.5" y1="12.2" x2="54.8" y2="12.2"/>
	<line class="st2" x1="44.5" y1="81" x2="54.8" y2="81"/>
	<path class="st3" d="M59.2,37c0-4.3-4.6-8.9-9.5-8.9c-6.3,0-11.4,4.9-11,17c0.2,4.7-5.2,7-5.2,7v6.8h32.1v-7c0,0-6.3-1.2-5.9-8.4"
		/>
	<line class="st3" x1="33.6" y1="52" x2="65.7" y2="52"/>
	<path class="st3" d="M44.5,59.9c0,2.8,2.3,5.1,5.5,4.8c3.3-0.3,4.2-2.5,4.2-4.8"/>
	<line class="st3" x1="49.7" y1="29" x2="49.7" y2="23.7"/>
</g>
</svg>
