<?xml version="1.0" encoding="utf-8"?>
<!-- Generator: Adobe Illustrator 23.0.3, SVG Export Plug-In . SVG Version: 6.00 Build 0)  -->
<svg version="1.1" id="Слой_1" xmlns="http://www.w3.org/2000/svg" xmlns:xlink="http://www.w3.org/1999/xlink" x="0px" y="0px"
	 viewBox="0 0 100 100" style="enable-background:new 0 0 100 100;" xml:space="preserve">
<style type="text/css">
	.st0{fill:none;stroke:#2D3547;stroke-width:3;stroke-linecap:round;stroke-linejoin:round;stroke-miterlimit:10;}
	.st1{fill:none;stroke:#2D3547;stroke-width:2;stroke-linecap:round;stroke-linejoin:round;stroke-miterlimit:10;}
	.st2{fill:none;stroke:#06ADEF;stroke-width:4;stroke-linecap:round;stroke-linejoin:round;stroke-miterlimit:10;}
</style>
<g>
	<g>
		<path class="st0" d="M54.8,38.4c-0.4,3.2,1.5,5.3,8.3,5.9c6.3,0.6,4.5,9.5,4.5,9.5H50.9H51H34.4c0,0-1.8-8.9,4.5-9.5
			c6.7-0.6,8-2.5,7.8-5.9"/>
		<path class="st0" d="M45.5,42.7c2.3,2,6.1,3.6,11.2,0.2"/>
		<path class="st1" d="M43.1,24.7c0,3.3,0,5,0,6.8s1,7.5,7.8,7.4c6.8-0.1,7.8-5.5,7.8-7.4s0-6.7,0-6.7c-3.2,1.6-10.3,2.4-16-5.5"/>
		<path class="st0" d="M60.8,22.7c-1-4.2-3.5-8.3-9.7-8.4c-3.7-0.1-7.4,1.8-9,4.5c-1.3,2-1.2,4.7-0.5,6.3c2.3-0.7,3.9-2.1,3.9-2.1"
			/>
	</g>
	<g>
		<path class="st1" d="M71,47.8c1.2-0.2,1.9-1.3,1.8-2.3"/>
		<path class="st1" d="M78.7,45.2c-0.6,2.5,1,3.8,6.2,4.2c4.8,0.4,3.4,7.3,3.4,7.3H75.5h0.1h-2.3"/>
		<path class="st1" d="M69.6,35.1c0,2.5,0,3.8,0,5.2s0.8,5.7,6,5.6c5.2-0.1,6-4.2,6-5.7c0-1.4,0-5.2,0-5.2
			c-2.4,1.2-7.9,1.8-12.3-4.3"/>
		<path class="st1" d="M83.1,34.6c-0.8-3.2-2.4-6.5-7.5-7.1c-2.8-0.3-5.2,1.4-6.4,3.4c-1,1.6-1.3,3.3-0.8,4.6"/>
	</g>
	<path class="st2" d="M56.9,83c2.2,1.7,4.9,2.7,7.9,2.7c7,0,12.7-5.7,12.7-12.7s-5.7-12.7-12.7-12.7c-7,0-10.2,4.9-12.7,12.7
		c-2,6-6.9,12.7-14,12.7S25.4,80,25.4,73s5.7-12.7,12.7-12.7c4.4,0,8.2,2.2,10.5,5.5"/>
	<g>
		<path class="st1" d="M21.6,30.5c1.4-0.9,3-1.6,4.7-2"/>
		<path class="st1" d="M15.2,39.6c0.4-1.7,1-3.3,2-4.7"/>
		<path class="st1" d="M17.2,50.6c-0.9-1.4-1.6-3-2-4.7"/>
		<path class="st1" d="M26.3,56.9c-1.7-0.4-3.3-1-4.7-2"/>
		<path class="st1" d="M32.4,28.5c1.8,0.4,3.4,1.1,4.9,2"/>
		<polyline class="st1" points="26.3,28.5 27.3,24.7 32,24.7 32.6,28.5 		"/>
		<polyline class="st1" points="17.2,34.9 15.2,31.5 18.6,28.2 21.6,30.5 		"/>
		<polyline class="st1" points="15.2,45.8 11.5,44.8 11.5,40.1 15.2,39.6 		"/>
		<polyline class="st1" points="21.6,55 18.3,56.9 14.9,53.6 17.2,50.6 		"/>
	</g>
	<path class="st1" d="M29.5,49.4c-3.7,0-6.7-3-6.7-6.7s3-6.7,6.7-6.7c2.2,0,4.1,1.1,5.3,2.7"/>
</g>
</svg>
