<?xml version="1.0" encoding="utf-8"?>
<!-- Generator: Adobe Illustrator 23.0.3, SVG Export Plug-In . SVG Version: 6.00 Build 0)  -->
<svg version="1.1" id="Слой_1" xmlns="http://www.w3.org/2000/svg" xmlns:xlink="http://www.w3.org/1999/xlink" x="0px" y="0px"
	 viewBox="0 0 100 100" style="enable-background:new 0 0 100 100;" xml:space="preserve">
<style type="text/css">
	.st0{fill:none;stroke:#2D3547;stroke-width:4;stroke-linecap:round;stroke-miterlimit:10;}
	.st1{fill:none;stroke:#2D3547;stroke-width:2;stroke-linecap:round;stroke-linejoin:round;stroke-miterlimit:10;}
	.st2{fill:#2D3547;}
	.st3{fill:none;stroke:#06ADEF;stroke-width:4;stroke-linecap:round;stroke-linejoin:round;stroke-miterlimit:10;}
</style>
<path class="st0" d="M84.7,27.5H20.2c-2.2,0-4-1.8-4-4v-2.7c0-2.2,1.8-4,4-4h64.5c2.2,0,4,1.8,4,4v2.7
	C88.7,25.7,86.9,27.5,84.7,27.5z"/>
<line class="st0" x1="21.7" y1="44.2" x2="21.7" y2="27.6"/>
<path class="st0" d="M84.3,66.3c0,0.2,0,14.8,0,14.9c-0.3,1.8-1.9,3.1-3.9,3.1H25.7c-2.2,0-4-1.6-4-3.6v-1.6"/>
<line class="st0" x1="84.7" y1="27.5" x2="84.7" y2="50.3"/>
<line class="st0" x1="44.4" y1="34.6" x2="62.1" y2="34.6"/>
<g>
	<path class="st1" d="M59.6,53.4c2.8,0,5.1,2.3,5.1,5.1c0,2.8-2.3,5.1-5.1,5.1"/>
	<line class="st1" x1="52.9" y1="42.6" x2="52.9" y2="61.2"/>
	<g>
		<g>
			<path class="st2" d="M54,64.7c-0.3-0.3-0.7-0.4-1.1-0.4s-0.8,0.2-1.1,0.4c-0.3,0.3-0.4,0.7-0.4,1.1c0,0.4,0.2,0.8,0.4,1.1
				c0.3,0.3,0.7,0.4,1.1,0.4s0.8-0.2,1.1-0.4c0.3-0.3,0.4-0.7,0.4-1.1C54.4,65.4,54.3,65,54,64.7z"/>
		</g>
	</g>
	<path class="st3" d="M30.1,52.4v19.2c0,1.6-1.3,2.9-2.9,2.9h0c-1.6,0-2.9-1.3-2.9-2.9v-4.4c0-1.6,1.3-2.9,2.9-2.9h2.3
		c0.4,0,0.7,0.1,1.1,0.2l24.9,8.9c1.9,0.8,4-0.6,4-2.7V44.2c0-2.1-2.1-3.5-4-2.7l-23.7,8.2C30.8,50.2,30.1,51.3,30.1,52.4z"/>
	<path class="st3" d="M30.1,64.3h-9c-3.8,0-6.9-3.1-6.9-6.9v0c0-3.8,3.1-6.9,6.9-6.9h9"/>
	<line class="st3" x1="68.8" y1="51" x2="73.9" y2="45.9"/>
	<line class="st3" x1="70.8" y1="58.5" x2="84.3" y2="58.5"/>
	<line class="st3" x1="68.8" y1="65.7" x2="74" y2="70.9"/>
</g>
</svg>
